<svg xmlns="http://www.w3.org/2000/svg" width="16.283" height="16.283" viewBox="0 0 16.283 16.283"><path d="M3.257,1.628A1.628,1.628,0,0,0,1.628,3.257v9.77a1.628,1.628,0,0,0,1.628,1.628h9.77a1.628,1.628,0,0,0,1.628-1.628V3.257a1.628,1.628,0,0,0-1.628-1.628ZM3.257,0h9.77a3.257,3.257,0,0,1,3.257,3.257v9.77a3.257,3.257,0,0,1-3.257,3.257H3.257A3.257,3.257,0,0,1,0,13.027V3.257A3.257,3.257,0,0,1,3.257,0Zm5.7,8.956v3.257a.814.814,0,1,1-1.628,0V8.956H4.071a.814.814,0,1,1,0-1.628H7.327V4.071a.814.814,0,1,1,1.628,0V7.327h3.257a.814.814,0,1,1,0,1.628Z" fill="#0533ed"/></svg>