<svg xmlns="http://www.w3.org/2000/svg" width="28.372" height="28.271" viewBox="0 0 28.372 28.271"><g transform="translate(-14827.651 -3698.318)"><path d="M405.956,325.741l-.232-.008a13.9,13.9,0,0,1,6.536-6.447,14.185,14.185,0,0,1,11.185-.527,13.25,13.25,0,0,1,3.545,1.954,14.288,14.288,0,0,1,5.284,8.123,14.62,14.62,0,0,1,.339,4.1,2.952,2.952,0,0,1-.206.721,6.408,6.408,0,0,1-7.878,3.79,8.165,8.165,0,0,0-3.193-13.088,8.88,8.88,0,0,0-2.531-.519,8.2,8.2,0,0,0-2.363.248S409.71,321.774,405.956,325.741Z" transform="translate(14423.382 3380.457)" fill="#0533ed"/><path d="M431.062,337.637l.232.008a13.9,13.9,0,0,1-6.535,6.447,14.187,14.187,0,0,1-11.187.527,13.263,13.263,0,0,1-3.545-1.954,14.289,14.289,0,0,1-5.284-8.123,14.575,14.575,0,0,1-.338-4.1,2.9,2.9,0,0,1,.2-.721,6.409,6.409,0,0,1,7.878-3.79,8.165,8.165,0,0,0,3.193,13.088,8.881,8.881,0,0,0,2.531.519,8.2,8.2,0,0,0,2.363-.248S427.309,341.6,431.062,337.637Z" transform="translate(14423.275 3381.074)" fill="#0533ed"/><path d="M413.1,332.159a4.855,4.855,0,1,1,5.621,3.941A4.856,4.856,0,0,1,413.1,332.159Z" transform="translate(14423.958 3381.136)" fill="#0533ed"/></g></svg>