<svg xmlns="http://www.w3.org/2000/svg" width="161.103" height="48.268" viewBox="0 0 161.103 48.268"><g transform="translate(-42.926 -49.796)"><text transform="translate(70.298 95.064)" fill="#fff" font-size="11.317" font-family="ArminSoft-Normal, Armin Soft" letter-spacing="-0.03em"><tspan x="0" y="0">Digital assets manager</tspan></text><path d="M57.436,49.8h-14.5l-.01.218c3.109.47,3.894,3.524,4.058,5.161.622,6.077,0,24.427,0,24.427h6.339V69.161h3.5a12.85,12.85,0,0,0,8.618-2.76,9.066,9.066,0,0,0,3.2-7.2C68.64,52.862,64.974,49.8,57.436,49.8Zm-1.19,14.685H53.323V54.542h2.923c3.786,0,5.7,1.658,5.7,4.909C61.941,62.79,60.032,64.481,56.246,64.481Z" fill="#fff"/><path d="M78.9,57.924a19.919,19.919,0,0,0-4.342.546,13.486,13.486,0,0,0-3.295,1.189,15.654,15.654,0,0,1-1.091,4.505l.033.11s5.357-2.292,7.833-2.292c2.706,0,4.08,1.277,4.08,3.786v.218l-6.076.808c-4.877.632-7.244,2.934-7.244,7.037a6.162,6.162,0,0,0,1.734,4.582,6.538,6.538,0,0,0,4.779,1.713,6.854,6.854,0,0,0,6.24-3.513l.066-.12h.469V79.6h5.826V66.914C87.908,60.87,84.962,57.924,78.9,57.924Zm3.218,13.135a5,5,0,0,1-1.232,3.448,4.26,4.26,0,0,1-3.252,1.375,3.316,3.316,0,0,1-2.312-.786,2.729,2.729,0,0,1-.862-2.062c0-1.8,1.156-2.869,3.458-3.175l4.2-.534Z" fill="#fff"/><path d="M157.625,60.681a8.309,8.309,0,0,0-13.049.873l-.076.107h-.458v-3.22H133.529v.215c2.447.538,4.608,4.353,4.584,8.427-.028,4.848-.257,18.31-.257,18.31l6.186-.035V76.837h.458l.065.108a6.564,6.564,0,0,0,5.761,2.9,8.559,8.559,0,0,0,6.917-3.145,12.8,12.8,0,0,0,2.618-8.412A11.8,11.8,0,0,0,157.625,60.681ZM152.2,73.434a4.328,4.328,0,0,1-3.731,1.842,4.142,4.142,0,0,1-3.295-1.476,5.72,5.72,0,0,1-1.243-3.77V68.318a6.308,6.308,0,0,1,1.352-4.2,4.478,4.478,0,0,1,3.546-1.626c3.1,0,4.681,1.982,4.681,5.87A8.512,8.512,0,0,1,152.2,73.434Z" fill="#fff"/><path d="M170.27,51.958,164.1,53.723v4.728h-5.186v.256a6.809,6.809,0,0,1,2.531,4.18H164.1V73.036c0,4.777,2.233,7.087,6.815,7.087a10.071,10.071,0,0,0,4.212-.682v-4.4a4.588,4.588,0,0,1-1.931.458c-1.94,0-2.924-1.218-2.924-3.626V62.887h4.855V58.451H170.27Z" fill="#fff"/><path d="M199.6,62.546a7.763,7.763,0,0,1,4.426,1.345v-5.06a11.608,11.608,0,0,0-5.284-.906,12.034,12.034,0,0,0-8.677,3.11,11.32,11.32,0,0,0-3.227,8.52,10.283,10.283,0,0,0,3,7.624,10.865,10.865,0,0,0,7.906,2.944,13.181,13.181,0,0,0,6.279-1.209V74.137A8.9,8.9,0,0,1,199.4,75.5a6.145,6.145,0,0,1-4.592-1.716,6.409,6.409,0,0,1-1.677-4.679,6.528,6.528,0,0,1,1.755-4.806A6.406,6.406,0,0,1,199.6,62.546Z" fill="#fff"/><path d="M188.171,79.618l-.012.228H178.01V58.2c4.105.33,6.234,1.129,6.1,8.632,0,0-.194,5.737,0,7.63C184.271,76.094,185.069,79.151,188.171,79.618Z" fill="#fff"/><path d="M184.4,51.012,178.164,53v2.548s4.785.23,6.044,2.521h.191Z" fill="#fff"/><path d="M134.393,73.726l.18.005a10.764,10.764,0,0,1-5.064,4.995,10.989,10.989,0,0,1-8.668.408,10.256,10.256,0,0,1-2.746-1.513,11.071,11.071,0,0,1-4.1-6.3,8.484,8.484,0,0,1-.283-2.582,4.357,4.357,0,0,1,1.424-2.991,5.237,5.237,0,0,1,4.861-1.1,6.326,6.326,0,0,0,2.474,10.14,6.861,6.861,0,0,0,1.961.4A6.33,6.33,0,0,0,126.268,75S131.485,76.8,134.393,73.726Z" fill="#8af9e6"/><path d="M115.065,63.947l-.18-.007a10.772,10.772,0,0,1,5.107-4.952,10.994,10.994,0,0,1,8.67-.334,10.291,10.291,0,0,1,2.734,1.537,11.078,11.078,0,0,1,4.04,6.33,8.47,8.47,0,0,1,.262,2.584,4.368,4.368,0,0,1-1.45,2.98,5.24,5.24,0,0,1-4.87,1.057,6.327,6.327,0,0,0-2.387-10.161,6.853,6.853,0,0,0-1.958-.419,6.311,6.311,0,0,0-1.832.176S118,60.9,115.065,63.947Z" fill="#8af9e6"/><path d="M121,69.529a3.762,3.762,0,1,1,4.357,3.054A3.763,3.763,0,0,1,121,69.529Z" fill="#8af9e6"/><path d="M111.213,72.337c-.036-1.07.056-1.79.142-5.745,0-5.83-2.272-8.667-6.942-8.667a7.46,7.46,0,0,0-6.746,3.831l-.068.117h-.468V58.451H86.895l0,.219c3.1.471,3.892,3.526,4.057,5.159.4,3.922,0,15.768,0,15.768h6.181V67.508a5.328,5.328,0,0,1,1.179-3.539,3.8,3.8,0,0,1,3.042-1.423c2.545,0,3.831,1.774,3.831,5.274V79.6H116.09l0-.22C112.924,78.413,111.347,76.326,111.213,72.337Z" fill="#fff"/></g></svg>