<svg xmlns="http://www.w3.org/2000/svg" viewBox="0 0 152.22 45.15"><defs><style>.cls-1{font-size:10.69px;font-family:ArminSoft-Normal, Armin Soft;}.cls-1,.cls-2{fill:#fff;}.cls-3{fill:#8af9e6;}</style></defs><g id="Layer_2" data-name="Layer 2"><g id="Layer_1-2" data-name="Layer 1"><text class="cls-1" transform="translate(23.58 42.77)">Digital assets managed</text><path class="cls-2" d="M13.71,0H0V.21C2.94.65,3.68,3.54,3.83,5.08c.59,5.74,0,23.08,0,23.08h6V18.3h3.31a12.17,12.17,0,0,0,8.15-2.61,8.56,8.56,0,0,0,3-6.8C24.3,2.9,20.83,0,13.71,0ZM12.59,13.87H9.82V4.48h2.77C16.16,4.48,18,6.05,18,9.12S16.16,13.87,12.59,13.87Z"/><path class="cls-2" d="M34,7.68a18.87,18.87,0,0,0-4.11.51,13,13,0,0,0-3.11,1.13,14.88,14.88,0,0,1-1,4.26l0,.1s5.06-2.17,7.4-2.17c2.56,0,3.86,1.21,3.86,3.58v.21l-5.74.76c-4.61.6-6.85,2.77-6.85,6.65A5.84,5.84,0,0,0,26.08,27a6.19,6.19,0,0,0,4.52,1.62,6.49,6.49,0,0,0,5.89-3.32l.06-.12H37v2.94h5.5v-12C42.5,10.46,39.72,7.68,34,7.68Zm3,12.41a4.71,4.71,0,0,1-1.17,3.26,4,4,0,0,1-3.07,1.3,3.09,3.09,0,0,1-2.18-.75A2.55,2.55,0,0,1,29.79,22c0-1.7,1.09-2.71,3.27-3l4-.51Z"/><path class="cls-2" d="M108.37,10.28A7.86,7.86,0,0,0,96,11.11l-.07.1h-.43v-3H85.61v.2c2.31.51,4.35,4.11,4.33,8,0,4.58-.25,17.3-.25,17.3l5.85,0v-8H96l.06.1a6.22,6.22,0,0,0,5.45,2.74,8.09,8.09,0,0,0,6.53-3,12.1,12.1,0,0,0,2.48-8A11.12,11.12,0,0,0,108.37,10.28Zm-5.12,12a4.09,4.09,0,0,1-3.53,1.74,3.91,3.91,0,0,1-3.11-1.39,5.43,5.43,0,0,1-1.17-3.56V17.5a6,6,0,0,1,1.27-4A4.23,4.23,0,0,1,100.06,12c2.93,0,4.43,1.88,4.43,5.55A8.06,8.06,0,0,1,103.25,22.33Z"/><path class="cls-2" d="M68.92,28v.21H58.82V17a8.32,8.32,0,0,0-.31-2.44,3.17,3.17,0,0,0-3.31-2.54,3.44,3.44,0,0,0-1.64.37,3.53,3.53,0,0,0-1.23,1,5,5,0,0,0-1.12,3.35V28.16H45.38s0-1.28.08-3.11c.08-3.6.16-9.33-.08-11.79,0-.15,0-.31-.07-.48-.26-1.6-1.13-4-3.76-4.39V8.17h9.66v3.24h.45l.06-.11a7.23,7.23,0,0,1,3.44-3.07,7.5,7.5,0,0,1,2.93-.55,8.77,8.77,0,0,1,.9,0c3.59.33,5.45,2.72,5.65,7.28,0,.93,0,1.81,0,2.61v.33c0,.79,0,1.48,0,2.06,0,.21,0,.42,0,.63v-.21C64.72,24.11,66.7,27.46,68.92,28Z"/><path class="cls-2" d="M137.7,28v.21H127.64V7.71h.19c3.54.3,5.48,1.08,5.56,7.07a1.49,1.49,0,0,1,0,.21c0,.12,0,.24,0,.35s0,.46,0,.68v4.74C133.62,24.32,135.54,27.48,137.7,28Z"/><path class="cls-2" d="M120.32,2l-5.83,1.67V8.18h-4.9v.24A6.44,6.44,0,0,1,112,12.37h2.51V22c0,4.51,2.11,6.69,6.44,6.69a9.59,9.59,0,0,0,4-.64V23.86a4.44,4.44,0,0,1-1.83.43c-1.83,0-2.76-1.15-2.76-3.43V12.37h4.59V8.18h-4.59Z"/><path class="cls-2" d="M148,12.05a7.32,7.32,0,0,1,4.18,1.27V8.54a11,11,0,0,0-5-.86,11.38,11.38,0,0,0-8.2,2.94A10.68,10.68,0,0,0,136,18.67a9.7,9.7,0,0,0,2.84,7.2,10.26,10.26,0,0,0,7.47,2.78,12.38,12.38,0,0,0,5.93-1.14V23a8.38,8.38,0,0,1-4.38,1.29,5.85,5.85,0,0,1-4.34-1.62,6.05,6.05,0,0,1-1.58-4.42,6.18,6.18,0,0,1,1.66-4.55A6.07,6.07,0,0,1,148,12.05Z"/><path class="cls-2" d="M133.53.91,127.64,2.8V5.2s4.52.22,5.71,2.39h.18Z"/><path class="cls-3" d="M86.42,22.61h.17a10.13,10.13,0,0,1-4.78,4.72,10.37,10.37,0,0,1-8.19.39A9.94,9.94,0,0,1,71,26.29a10.46,10.46,0,0,1-3.87-5.95,8,8,0,0,1-.26-2.44,4.09,4.09,0,0,1,1.34-2.82,4.94,4.94,0,0,1,4.6-1,6,6,0,0,0,.47,8.45,5.8,5.8,0,0,0,1.86,1.13A6.49,6.49,0,0,0,77,24a6.38,6.38,0,0,0,1.73-.18S83.68,25.51,86.42,22.61Z"/><path class="cls-3" d="M68.16,13.37H68a10.2,10.2,0,0,1,4.83-4.67A10.34,10.34,0,0,1,81,8.37a9.71,9.71,0,0,1,2.58,1.45,10.48,10.48,0,0,1,3.82,6,8,8,0,0,1,.25,2.44,4.16,4.16,0,0,1-1.37,2.82,5,5,0,0,1-4.61,1,6.2,6.2,0,0,0,1.22-2,6,6,0,0,0-3.47-7.58,6.48,6.48,0,0,0-1.85-.4,6.21,6.21,0,0,0-1.73.17S70.93,10.49,68.16,13.37Z"/><path class="cls-3" d="M73.77,18.64a3.55,3.55,0,1,1,4.12,2.89A3.55,3.55,0,0,1,73.77,18.64Z"/><path class="cls-2" d="M133.41,15.35c0,.23,0,.46,0,.68v-.68Z"/></g></g></svg>