<svg xmlns="http://www.w3.org/2000/svg" viewBox="0 0 1756.84 521.05"><defs><style>.cls-1{font-size:123.41px;font-family:ArminSoft-Normal, Armin Soft;}.cls-1,.cls-2{fill:#252528;}.cls-3{fill:#0533ed;}</style></defs><g id="Layer_2" data-name="Layer 2"><g id="Layer_1-2" data-name="Layer 1"><text class="cls-1" transform="translate(272.1 493.65)">Digital assets managed</text><path class="cls-2" d="M158.23,0H.12L0,2.38C33.91,7.5,42.47,40.81,44.26,58.65c6.78,66.27,0,266.38,0,266.38h69.12V211.18h38.19c39,0,70.67-10.12,94-30.1s34.86-46.28,34.86-78.53C280.42,33.43,240.44,0,158.23,0Zm-13,160.14H113.38V51.75h31.88c41.29,0,62.11,18.09,62.11,53.54C207.37,141.7,186.55,160.14,145.26,160.14Z"/><path class="cls-2" d="M392.26,88.63c-14,0-30.1,2-47.35,6-16.54,3.69-26.06,8.21-35.93,13,0,0-3.69,35.46-11.9,49.14l.36,1.19s58.42-25,85.42-25c29.51,0,44.5,13.92,44.5,41.29v2.38l-66.27,8.8c-53.18,6.9-79,32-79,76.74,0,20.7,6.31,37.59,18.92,50s30.1,18.68,52.11,18.68c29.86,0,52.82-12.85,68.05-38.31l.72-1.3H427V325h63.53V186.67C490.53,120.76,458.41,88.63,392.26,88.63Zm35.1,143.25c0,15-4.52,27.6-13.45,37.59-9.16,9.88-21.05,15-35.45,15-10.47,0-18.92-2.85-25.22-8.56s-9.4-13.45-9.4-22.49c0-19.63,12.61-31.29,37.71-34.62L427.36,213Z"/><path class="cls-2" d="M1250.8,118.7c-16.06-20-39.14-30.07-68.64-30.07-31.53,0-56.28,13.39-73.65,39.59l-.83,1.17h-5V94.27H988v2.35c26.69,5.86,50.25,47.47,50,91.89-.31,52.87-2.81,199.68-2.81,199.68l67.46-.39V294.89h5l.71,1.17c14.4,21,35.46,31.6,62.82,31.6,31.29,0,56.75-11.63,75.43-34.3,19-22.9,28.55-53.8,28.55-91.73C1275.19,166.74,1267.1,138.79,1250.8,118.7Zm-59.13,139.07c-9.51,13.39-23.32,20.08-40.69,20.08-14.75,0-26.77-5.4-35.93-16.09-8.92-10.68-13.56-24.54-13.56-41.11V202c0-18.91,5-34.3,14.75-45.81,10-11.74,23.08-17.73,38.67-17.73,33.79,0,51,21.61,51,64C1206,226.17,1201.19,244.73,1191.67,257.77Z"/><path class="cls-2" d="M795.5,322.63V325H678.89V196.55q0-16.41-3.55-28.17c-5.65-19.51-18.42-29.35-38.2-29.35a40.8,40.8,0,0,0-19,4.28A42.29,42.29,0,0,0,604,154.52c-8.48,10.12-12.86,23.07-12.86,38.66V325H523.73s.45-14.77,1-35.92c.91-41.48,1.82-107.66-1-136-.18-1.73-.46-3.55-.73-5.56-3-18.41-13-46-43.49-50.69V94.35H591.1v37.38h5.11l.73-1.27c10.3-17.05,23.61-28.9,39.65-35.47a86.94,86.94,0,0,1,33.92-6.38c3.55,0,7,.18,10.3.46,41.48,3.82,62.9,31.45,65.27,84.05-.18,10.76-.36,20.88-.45,30.18V207c-.09,9.11-.18,17.13-.18,23.79,0,2.46,0,4.83.18,7.29v-2.46C747,278.24,769.79,317,795.5,322.63Z"/><path class="cls-2" d="M1589.28,322.63V325H1473.14V89c.45,0,.91.1,1.36.1.28,0,.55.09.82.09,40.94,3.46,63.27,12.4,64.28,81.5a22.61,22.61,0,0,1,.18,2.46c0,1.37-.09,2.74,0,4-.09,2.74-.09,5.38-.09,7.93v54.61C1542.24,280.7,1564.39,317.16,1589.28,322.63Z"/><path class="cls-2" d="M1388.7,23.58l-67.3,19.24V94.38h-56.56v2.79c12.39,7.89,24.4,27.48,27.6,45.59h29V253.43c0,52.09,24.35,77.29,74.31,77.29,20.2,0,35.62-2.45,45.93-7.44V275.33a50,50,0,0,1-21.05,5c-21.15,0-31.89-13.29-31.89-39.55v-98h52.94V94.38H1388.7Z"/><path class="cls-2" d="M1708.58,139a84.57,84.57,0,0,1,48.26,14.68V98.53c-12-6.59-31.47-9.89-57.62-9.89-39.34,0-71.23,11.38-94.62,33.92s-35.19,53.79-35.19,92.91c0,33.81,11.06,61.77,32.75,83.14,21.9,21.37,50.81,32.11,86.22,32.11,29.55,0,52.62-4.36,68.46-13.18v-52.1c-16.37,9.89-33.38,14.89-50.5,14.89-21,0-37.95-6.28-50.07-18.72s-18.29-29.44-18.29-51c0-22.11,6.49-39.76,19.14-52.41S1687.1,139,1708.58,139Z"/><path class="cls-2" d="M1541.12,10.56l-68,21.72V60.06s52.17,2.51,65.9,27.5h2.08Z"/><path class="cls-3" d="M997.46,261l2,.06a117.38,117.38,0,0,1-55.22,54.47c-28.09,13.31-59,16.72-94.52,4.46-11-3.79-21.1-9.89-29.95-16.51a120.79,120.79,0,0,1-44.66-68.64c-2.73-11.06-3.48-19.07-3.09-28.16.32-7.32,3.59-22.46,15.53-32.63,11.43-9.72,27-17.38,53-12-5.6,6.44-10.85,14.34-13.81,23.4-10,30.42.75,57.58,19.26,74.13A68.53,68.53,0,0,0,867.5,272.6c6.75,2.38,15.26,4.31,21.39,4.38a68.81,68.81,0,0,0,20-2.08S965.75,294.46,997.46,261Z"/><path class="cls-3" d="M786.68,154.31l-1.95-.07a117.37,117.37,0,0,1,55.68-54C868.61,87.17,899.59,84,935,96.6c10.93,3.88,21,10.06,29.81,16.76a120.76,120.76,0,0,1,44.06,69c2.64,11.08,3.32,19.1,2.85,28.18-.38,7.32-3.78,22.44-15.81,32.5-11.51,9.62-27.19,17.15-53.11,11.53a69,69,0,0,0,14-23.28C967,201,956.53,173.73,938.16,157a68.51,68.51,0,0,0-21.42-13.24c-6.73-2.44-15.22-4.44-21.35-4.57a69.08,69.08,0,0,0-20,1.92S818.68,121.08,786.68,154.31Z"/><path class="cls-3" d="M851.43,215.19a41,41,0,1,1,47.51,33.3A41,41,0,0,1,851.43,215.19Z"/><path class="cls-2" d="M1539.78,177.13c-.09,2.74-.09,5.38-.09,7.93v-7.93Z"/></g></g></svg>